<mxfile host="app.diagrams.net" agent="Mozilla/5.0 (Windows NT 10.0; Win64; x64) AppleWebKit/537.36 (KHTML, like Gecko) Chrome/135.0.0.0 Safari/537.36" version="26.2.12">
  <diagram name="Page-1" id="529qvw6aOXcLFpT7_6zL">
    <mxGraphModel dx="1248" dy="652" grid="1" gridSize="10" guides="1" tooltips="1" connect="1" arrows="1" fold="1" page="1" pageScale="1" pageWidth="827" pageHeight="1169" math="0" shadow="0">
      <root>
        <mxCell id="0" />
        <mxCell id="1" parent="0" />
        <mxCell id="WRe95SmpytIDdUdiH81R-3" value="Customer" style="shape=umlActor;verticalLabelPosition=bottom;verticalAlign=top;html=1;outlineConnect=0;" vertex="1" parent="1">
          <mxGeometry x="100" y="70" width="30" height="60" as="geometry" />
        </mxCell>
        <mxCell id="WRe95SmpytIDdUdiH81R-5" value="" style="ellipse;whiteSpace=wrap;html=1;aspect=fixed;" vertex="1" parent="1">
          <mxGeometry x="320" y="80" width="54" height="54" as="geometry" />
        </mxCell>
        <mxCell id="WRe95SmpytIDdUdiH81R-6" value="" style="endArrow=none;html=1;rounded=0;entryX=0;entryY=0.5;entryDx=0;entryDy=0;" edge="1" parent="1" target="WRe95SmpytIDdUdiH81R-5">
          <mxGeometry width="50" height="50" relative="1" as="geometry">
            <mxPoint x="270" y="107" as="sourcePoint" />
            <mxPoint x="300" y="82" as="targetPoint" />
          </mxGeometry>
        </mxCell>
        <mxCell id="WRe95SmpytIDdUdiH81R-8" value="" style="endArrow=none;html=1;rounded=0;" edge="1" parent="1">
          <mxGeometry width="50" height="50" relative="1" as="geometry">
            <mxPoint x="270" y="138" as="sourcePoint" />
            <mxPoint x="270" y="76" as="targetPoint" />
          </mxGeometry>
        </mxCell>
        <mxCell id="WRe95SmpytIDdUdiH81R-10" value="" style="endArrow=none;html=1;rounded=0;" edge="1" parent="1">
          <mxGeometry width="50" height="50" relative="1" as="geometry">
            <mxPoint x="140" y="106.5" as="sourcePoint" />
            <mxPoint x="260" y="106.5" as="targetPoint" />
          </mxGeometry>
        </mxCell>
        <mxCell id="WRe95SmpytIDdUdiH81R-11" value="" style="ellipse;whiteSpace=wrap;html=1;aspect=fixed;" vertex="1" parent="1">
          <mxGeometry x="320" y="194" width="54" height="54" as="geometry" />
        </mxCell>
        <mxCell id="WRe95SmpytIDdUdiH81R-12" value="" style="endArrow=none;html=1;rounded=0;entryX=0;entryY=0.5;entryDx=0;entryDy=0;" edge="1" target="WRe95SmpytIDdUdiH81R-11" parent="1">
          <mxGeometry width="50" height="50" relative="1" as="geometry">
            <mxPoint x="270" y="221" as="sourcePoint" />
            <mxPoint x="300" y="196" as="targetPoint" />
          </mxGeometry>
        </mxCell>
        <mxCell id="WRe95SmpytIDdUdiH81R-13" value="" style="endArrow=none;html=1;rounded=0;" edge="1" parent="1">
          <mxGeometry width="50" height="50" relative="1" as="geometry">
            <mxPoint x="270" y="252" as="sourcePoint" />
            <mxPoint x="270" y="190" as="targetPoint" />
          </mxGeometry>
        </mxCell>
        <mxCell id="WRe95SmpytIDdUdiH81R-14" value="" style="ellipse;whiteSpace=wrap;html=1;aspect=fixed;" vertex="1" parent="1">
          <mxGeometry x="320" y="304" width="54" height="54" as="geometry" />
        </mxCell>
        <mxCell id="WRe95SmpytIDdUdiH81R-15" value="" style="endArrow=none;html=1;rounded=0;entryX=0;entryY=0.5;entryDx=0;entryDy=0;" edge="1" target="WRe95SmpytIDdUdiH81R-14" parent="1">
          <mxGeometry width="50" height="50" relative="1" as="geometry">
            <mxPoint x="270" y="331" as="sourcePoint" />
            <mxPoint x="300" y="306" as="targetPoint" />
          </mxGeometry>
        </mxCell>
        <mxCell id="WRe95SmpytIDdUdiH81R-16" value="" style="endArrow=none;html=1;rounded=0;" edge="1" parent="1">
          <mxGeometry width="50" height="50" relative="1" as="geometry">
            <mxPoint x="270" y="362" as="sourcePoint" />
            <mxPoint x="270" y="300" as="targetPoint" />
          </mxGeometry>
        </mxCell>
        <mxCell id="WRe95SmpytIDdUdiH81R-17" value="" style="ellipse;whiteSpace=wrap;html=1;aspect=fixed;" vertex="1" parent="1">
          <mxGeometry x="320" y="504" width="54" height="54" as="geometry" />
        </mxCell>
        <mxCell id="WRe95SmpytIDdUdiH81R-18" value="" style="endArrow=none;html=1;rounded=0;entryX=0;entryY=0.5;entryDx=0;entryDy=0;" edge="1" target="WRe95SmpytIDdUdiH81R-17" parent="1">
          <mxGeometry width="50" height="50" relative="1" as="geometry">
            <mxPoint x="270" y="531" as="sourcePoint" />
            <mxPoint x="300" y="506" as="targetPoint" />
          </mxGeometry>
        </mxCell>
        <mxCell id="WRe95SmpytIDdUdiH81R-19" value="" style="endArrow=none;html=1;rounded=0;" edge="1" parent="1">
          <mxGeometry width="50" height="50" relative="1" as="geometry">
            <mxPoint x="270" y="562" as="sourcePoint" />
            <mxPoint x="270" y="500" as="targetPoint" />
          </mxGeometry>
        </mxCell>
        <mxCell id="WRe95SmpytIDdUdiH81R-20" value="" style="endArrow=none;html=1;rounded=0;" edge="1" parent="1">
          <mxGeometry width="50" height="50" relative="1" as="geometry">
            <mxPoint x="140" y="220" as="sourcePoint" />
            <mxPoint x="120" y="160" as="targetPoint" />
          </mxGeometry>
        </mxCell>
        <mxCell id="WRe95SmpytIDdUdiH81R-21" value="" style="endArrow=none;html=1;rounded=0;" edge="1" parent="1">
          <mxGeometry width="50" height="50" relative="1" as="geometry">
            <mxPoint x="140" y="220.5" as="sourcePoint" />
            <mxPoint x="260" y="220.5" as="targetPoint" />
          </mxGeometry>
        </mxCell>
        <mxCell id="WRe95SmpytIDdUdiH81R-22" value="" style="endArrow=none;html=1;rounded=0;" edge="1" parent="1">
          <mxGeometry width="50" height="50" relative="1" as="geometry">
            <mxPoint x="140" y="330.5" as="sourcePoint" />
            <mxPoint x="260" y="330.5" as="targetPoint" />
          </mxGeometry>
        </mxCell>
        <mxCell id="WRe95SmpytIDdUdiH81R-23" value="" style="endArrow=none;html=1;rounded=0;" edge="1" parent="1">
          <mxGeometry width="50" height="50" relative="1" as="geometry">
            <mxPoint x="140" y="530.5" as="sourcePoint" />
            <mxPoint x="260" y="530.5" as="targetPoint" />
          </mxGeometry>
        </mxCell>
        <mxCell id="WRe95SmpytIDdUdiH81R-24" value="" style="endArrow=none;html=1;rounded=0;" edge="1" parent="1">
          <mxGeometry width="50" height="50" relative="1" as="geometry">
            <mxPoint x="140" y="330" as="sourcePoint" />
            <mxPoint x="110" y="160" as="targetPoint" />
          </mxGeometry>
        </mxCell>
        <mxCell id="WRe95SmpytIDdUdiH81R-25" value="" style="endArrow=none;html=1;rounded=0;" edge="1" parent="1">
          <mxGeometry width="50" height="50" relative="1" as="geometry">
            <mxPoint x="140" y="530" as="sourcePoint" />
            <mxPoint x="100" y="160" as="targetPoint" />
          </mxGeometry>
        </mxCell>
        <mxCell id="WRe95SmpytIDdUdiH81R-26" value="" style="ellipse;whiteSpace=wrap;html=1;aspect=fixed;" vertex="1" parent="1">
          <mxGeometry x="720" y="69" width="60" height="60" as="geometry" />
        </mxCell>
        <mxCell id="WRe95SmpytIDdUdiH81R-28" value="" style="endArrow=none;html=1;rounded=0;" edge="1" parent="1">
          <mxGeometry width="50" height="50" relative="1" as="geometry">
            <mxPoint x="710" y="129" as="sourcePoint" />
            <mxPoint x="790" y="129" as="targetPoint" />
          </mxGeometry>
        </mxCell>
        <mxCell id="WRe95SmpytIDdUdiH81R-37" value="" style="ellipse;whiteSpace=wrap;html=1;aspect=fixed;" vertex="1" parent="1">
          <mxGeometry x="540" y="73" width="54" height="54" as="geometry" />
        </mxCell>
        <mxCell id="WRe95SmpytIDdUdiH81R-38" value="" style="ellipse;whiteSpace=wrap;html=1;aspect=fixed;" vertex="1" parent="1">
          <mxGeometry x="260" y="400.5" width="60" height="60" as="geometry" />
        </mxCell>
        <mxCell id="WRe95SmpytIDdUdiH81R-39" value="" style="endArrow=none;html=1;rounded=0;" edge="1" parent="1">
          <mxGeometry width="50" height="50" relative="1" as="geometry">
            <mxPoint x="250" y="460.5" as="sourcePoint" />
            <mxPoint x="330" y="460.5" as="targetPoint" />
          </mxGeometry>
        </mxCell>
        <mxCell id="WRe95SmpytIDdUdiH81R-41" value="" style="endArrow=none;html=1;rounded=0;entryX=0;entryY=0.5;entryDx=0;entryDy=0;" edge="1" parent="1">
          <mxGeometry width="50" height="50" relative="1" as="geometry">
            <mxPoint x="374" y="106.5" as="sourcePoint" />
            <mxPoint x="540" y="100" as="targetPoint" />
          </mxGeometry>
        </mxCell>
        <mxCell id="WRe95SmpytIDdUdiH81R-42" value="" style="endArrow=none;html=1;rounded=0;entryX=0;entryY=0.5;entryDx=0;entryDy=0;" edge="1" parent="1" target="WRe95SmpytIDdUdiH81R-26">
          <mxGeometry width="50" height="50" relative="1" as="geometry">
            <mxPoint x="594" y="99.5" as="sourcePoint" />
            <mxPoint x="714" y="99.5" as="targetPoint" />
          </mxGeometry>
        </mxCell>
        <mxCell id="WRe95SmpytIDdUdiH81R-43" value="" style="endArrow=none;html=1;rounded=0;entryX=0.5;entryY=1;entryDx=0;entryDy=0;exitX=0.5;exitY=0;exitDx=0;exitDy=0;" edge="1" parent="1">
          <mxGeometry width="50" height="50" relative="1" as="geometry">
            <mxPoint x="567" y="140" as="sourcePoint" />
            <mxPoint x="567" y="127" as="targetPoint" />
          </mxGeometry>
        </mxCell>
        <mxCell id="WRe95SmpytIDdUdiH81R-44" value="" style="endArrow=none;html=1;rounded=0;entryX=0;entryY=0.5;entryDx=0;entryDy=0;exitX=1;exitY=0;exitDx=0;exitDy=0;" edge="1" parent="1" source="WRe95SmpytIDdUdiH81R-11">
          <mxGeometry width="50" height="50" relative="1" as="geometry">
            <mxPoint x="374" y="220.5" as="sourcePoint" />
            <mxPoint x="540" y="167" as="targetPoint" />
          </mxGeometry>
        </mxCell>
        <mxCell id="WRe95SmpytIDdUdiH81R-45" value="" style="endArrow=none;html=1;rounded=0;entryX=0;entryY=0.5;entryDx=0;entryDy=0;exitX=1;exitY=1;exitDx=0;exitDy=0;" edge="1" parent="1" source="WRe95SmpytIDdUdiH81R-11">
          <mxGeometry width="50" height="50" relative="1" as="geometry">
            <mxPoint x="374" y="220.5" as="sourcePoint" />
            <mxPoint x="540" y="237" as="targetPoint" />
          </mxGeometry>
        </mxCell>
        <mxCell id="WRe95SmpytIDdUdiH81R-46" value="" style="endArrow=none;html=1;rounded=0;exitX=1;exitY=0.5;exitDx=0;exitDy=0;entryX=0;entryY=1;entryDx=0;entryDy=0;" edge="1" parent="1" target="WRe95SmpytIDdUdiH81R-26">
          <mxGeometry width="50" height="50" relative="1" as="geometry">
            <mxPoint x="594" y="237" as="sourcePoint" />
            <mxPoint x="310" y="156.5" as="targetPoint" />
          </mxGeometry>
        </mxCell>
        <mxCell id="WRe95SmpytIDdUdiH81R-47" value="" style="endArrow=none;html=1;rounded=0;entryX=0.5;entryY=0;entryDx=0;entryDy=0;exitX=0.5;exitY=1;exitDx=0;exitDy=0;" edge="1" parent="1" source="WRe95SmpytIDdUdiH81R-114">
          <mxGeometry width="50" height="50" relative="1" as="geometry">
            <mxPoint x="567" y="264" as="sourcePoint" />
            <mxPoint x="567" y="280" as="targetPoint" />
          </mxGeometry>
        </mxCell>
        <mxCell id="WRe95SmpytIDdUdiH81R-48" value="" style="endArrow=none;html=1;rounded=0;exitX=0;exitY=0.5;exitDx=0;exitDy=0;entryX=1;entryY=0;entryDx=0;entryDy=0;" edge="1" parent="1" target="WRe95SmpytIDdUdiH81R-14">
          <mxGeometry width="50" height="50" relative="1" as="geometry">
            <mxPoint x="540" y="307" as="sourcePoint" />
            <mxPoint x="330" y="176.5" as="targetPoint" />
          </mxGeometry>
        </mxCell>
        <mxCell id="WRe95SmpytIDdUdiH81R-49" value="" style="endArrow=none;html=1;rounded=0;exitX=1;exitY=1;exitDx=0;exitDy=0;entryX=0;entryY=0.5;entryDx=0;entryDy=0;" edge="1" parent="1" source="WRe95SmpytIDdUdiH81R-14">
          <mxGeometry width="50" height="50" relative="1" as="geometry">
            <mxPoint x="220" y="186.5" as="sourcePoint" />
            <mxPoint x="540" y="377" as="targetPoint" />
          </mxGeometry>
        </mxCell>
        <mxCell id="WRe95SmpytIDdUdiH81R-50" value="" style="endArrow=none;html=1;rounded=0;exitX=1;exitY=0.5;exitDx=0;exitDy=0;entryX=0.5;entryY=1;entryDx=0;entryDy=0;" edge="1" parent="1" target="WRe95SmpytIDdUdiH81R-26">
          <mxGeometry width="50" height="50" relative="1" as="geometry">
            <mxPoint x="594" y="377" as="sourcePoint" />
            <mxPoint x="350" y="196.5" as="targetPoint" />
          </mxGeometry>
        </mxCell>
        <mxCell id="WRe95SmpytIDdUdiH81R-51" value="" style="endArrow=none;html=1;rounded=0;exitX=1;exitY=0.5;exitDx=0;exitDy=0;entryX=0;entryY=1;entryDx=0;entryDy=0;" edge="1" parent="1">
          <mxGeometry width="50" height="50" relative="1" as="geometry">
            <mxPoint x="441" y="431" as="sourcePoint" />
            <mxPoint x="547.9081169079632" y="396.0918830920368" as="targetPoint" />
          </mxGeometry>
        </mxCell>
        <mxCell id="WRe95SmpytIDdUdiH81R-52" value="" style="endArrow=none;html=1;rounded=0;exitX=1;exitY=0.5;exitDx=0;exitDy=0;entryX=0;entryY=0.5;entryDx=0;entryDy=0;" edge="1" parent="1" source="WRe95SmpytIDdUdiH81R-38">
          <mxGeometry width="50" height="50" relative="1" as="geometry">
            <mxPoint x="250" y="216.5" as="sourcePoint" />
            <mxPoint x="387" y="431" as="targetPoint" />
          </mxGeometry>
        </mxCell>
        <mxCell id="WRe95SmpytIDdUdiH81R-53" value="" style="endArrow=none;html=1;rounded=0;exitX=1;exitY=1;exitDx=0;exitDy=0;entryX=0;entryY=0.5;entryDx=0;entryDy=0;" edge="1" parent="1">
          <mxGeometry width="50" height="50" relative="1" as="geometry">
            <mxPoint x="433.0918830920368" y="450.0918830920368" as="sourcePoint" />
            <mxPoint x="540" y="467" as="targetPoint" />
          </mxGeometry>
        </mxCell>
        <mxCell id="WRe95SmpytIDdUdiH81R-54" value="" style="endArrow=none;html=1;rounded=0;exitX=1;exitY=0;exitDx=0;exitDy=0;entryX=1;entryY=1;entryDx=0;entryDy=0;" edge="1" parent="1" target="WRe95SmpytIDdUdiH81R-26">
          <mxGeometry width="50" height="50" relative="1" as="geometry">
            <mxPoint x="586.0918830920368" y="447.9081169079632" as="sourcePoint" />
            <mxPoint x="390" y="236.5" as="targetPoint" />
          </mxGeometry>
        </mxCell>
        <mxCell id="WRe95SmpytIDdUdiH81R-57" value="Data_Source" style="text;html=1;align=center;verticalAlign=middle;whiteSpace=wrap;rounded=0;" vertex="1" parent="1">
          <mxGeometry x="715" y="39" width="70" height="30" as="geometry" />
        </mxCell>
        <mxCell id="WRe95SmpytIDdUdiH81R-58" value="Search for past bookings" style="text;html=1;align=center;verticalAlign=middle;whiteSpace=wrap;rounded=0;" vertex="1" parent="1">
          <mxGeometry x="170" y="69" width="60" height="30" as="geometry" />
        </mxCell>
        <mxCell id="WRe95SmpytIDdUdiH81R-59" value="Selects a booking" style="text;html=1;align=center;verticalAlign=middle;whiteSpace=wrap;rounded=0;" vertex="1" parent="1">
          <mxGeometry x="170" y="180" width="60" height="30" as="geometry" />
        </mxCell>
        <mxCell id="WRe95SmpytIDdUdiH81R-60" value="Add store to favorites" style="text;html=1;align=center;verticalAlign=middle;whiteSpace=wrap;rounded=0;" vertex="1" parent="1">
          <mxGeometry x="170" y="288" width="60" height="30" as="geometry" />
        </mxCell>
        <mxCell id="WRe95SmpytIDdUdiH81R-61" value="Sees favorite stores" style="text;html=1;align=center;verticalAlign=middle;whiteSpace=wrap;rounded=0;" vertex="1" parent="1">
          <mxGeometry x="170" y="488" width="60" height="30" as="geometry" />
        </mxCell>
        <mxCell id="WRe95SmpytIDdUdiH81R-62" value="Store addition to favorites" style="text;html=1;align=center;verticalAlign=middle;whiteSpace=wrap;rounded=0;" vertex="1" parent="1">
          <mxGeometry x="260" y="416" width="60" height="30" as="geometry" />
        </mxCell>
        <mxCell id="WRe95SmpytIDdUdiH81R-64" value="Favorites Page" style="text;html=1;align=center;verticalAlign=middle;whiteSpace=wrap;rounded=0;" vertex="1" parent="1">
          <mxGeometry x="270" y="478" width="60" height="30" as="geometry" />
        </mxCell>
        <mxCell id="WRe95SmpytIDdUdiH81R-66" value="Search for past bookings" style="text;html=1;align=center;verticalAlign=middle;whiteSpace=wrap;rounded=0;" vertex="1" parent="1">
          <mxGeometry x="537" y="85" width="60" height="30" as="geometry" />
        </mxCell>
        <mxCell id="WRe95SmpytIDdUdiH81R-72" value="Dashboard Page" style="text;html=1;align=center;verticalAlign=middle;whiteSpace=wrap;rounded=0;" vertex="1" parent="1">
          <mxGeometry x="280" y="55" width="60" height="30" as="geometry" />
        </mxCell>
        <mxCell id="WRe95SmpytIDdUdiH81R-73" value="My Bookings Page" style="text;html=1;align=center;verticalAlign=middle;whiteSpace=wrap;rounded=0;" vertex="1" parent="1">
          <mxGeometry x="280" y="164" width="60" height="30" as="geometry" />
        </mxCell>
        <mxCell id="WRe95SmpytIDdUdiH81R-74" value="Booking Details Page" style="text;html=1;align=center;verticalAlign=middle;whiteSpace=wrap;rounded=0;" vertex="1" parent="1">
          <mxGeometry x="280" y="276" width="60" height="30" as="geometry" />
        </mxCell>
        <mxCell id="WRe95SmpytIDdUdiH81R-75" value="" style="endArrow=none;html=1;rounded=0;" edge="1" parent="1">
          <mxGeometry width="50" height="50" relative="1" as="geometry">
            <mxPoint x="570" y="73" as="sourcePoint" />
            <mxPoint x="580" y="69" as="targetPoint" />
          </mxGeometry>
        </mxCell>
        <mxCell id="WRe95SmpytIDdUdiH81R-84" value="" style="endArrow=none;html=1;rounded=0;exitX=0.5;exitY=0;exitDx=0;exitDy=0;entryX=0.739;entryY=0.124;entryDx=0;entryDy=0;entryPerimeter=0;" edge="1" parent="1" source="WRe95SmpytIDdUdiH81R-37" target="WRe95SmpytIDdUdiH81R-37">
          <mxGeometry width="50" height="50" relative="1" as="geometry">
            <mxPoint x="390" y="-81" as="sourcePoint" />
            <mxPoint x="440" y="-131" as="targetPoint" />
          </mxGeometry>
        </mxCell>
        <mxCell id="WRe95SmpytIDdUdiH81R-93" value="" style="ellipse;whiteSpace=wrap;html=1;aspect=fixed;" vertex="1" parent="1">
          <mxGeometry x="543" y="508" width="54" height="54" as="geometry" />
        </mxCell>
        <mxCell id="WRe95SmpytIDdUdiH81R-94" value="Display results" style="text;html=1;align=center;verticalAlign=middle;whiteSpace=wrap;rounded=0;" vertex="1" parent="1">
          <mxGeometry x="540" y="520" width="60" height="30" as="geometry" />
        </mxCell>
        <mxCell id="WRe95SmpytIDdUdiH81R-95" value="" style="endArrow=none;html=1;rounded=0;" edge="1" parent="1">
          <mxGeometry width="50" height="50" relative="1" as="geometry">
            <mxPoint x="573" y="508" as="sourcePoint" />
            <mxPoint x="583" y="504" as="targetPoint" />
          </mxGeometry>
        </mxCell>
        <mxCell id="WRe95SmpytIDdUdiH81R-96" value="" style="endArrow=none;html=1;rounded=0;exitX=0.5;exitY=0;exitDx=0;exitDy=0;entryX=0.739;entryY=0.124;entryDx=0;entryDy=0;entryPerimeter=0;" edge="1" parent="1" source="WRe95SmpytIDdUdiH81R-93" target="WRe95SmpytIDdUdiH81R-93">
          <mxGeometry width="50" height="50" relative="1" as="geometry">
            <mxPoint x="393" y="354" as="sourcePoint" />
            <mxPoint x="443" y="304" as="targetPoint" />
          </mxGeometry>
        </mxCell>
        <mxCell id="WRe95SmpytIDdUdiH81R-97" value="" style="ellipse;whiteSpace=wrap;html=1;aspect=fixed;" vertex="1" parent="1">
          <mxGeometry x="537" y="434" width="54" height="54" as="geometry" />
        </mxCell>
        <mxCell id="WRe95SmpytIDdUdiH81R-98" value="Search for favorite stores" style="text;html=1;align=center;verticalAlign=middle;whiteSpace=wrap;rounded=0;" vertex="1" parent="1">
          <mxGeometry x="534" y="446" width="60" height="30" as="geometry" />
        </mxCell>
        <mxCell id="WRe95SmpytIDdUdiH81R-99" value="" style="endArrow=none;html=1;rounded=0;" edge="1" parent="1">
          <mxGeometry width="50" height="50" relative="1" as="geometry">
            <mxPoint x="567" y="434" as="sourcePoint" />
            <mxPoint x="577" y="430" as="targetPoint" />
          </mxGeometry>
        </mxCell>
        <mxCell id="WRe95SmpytIDdUdiH81R-100" value="" style="endArrow=none;html=1;rounded=0;exitX=0.5;exitY=0;exitDx=0;exitDy=0;entryX=0.739;entryY=0.124;entryDx=0;entryDy=0;entryPerimeter=0;" edge="1" parent="1" source="WRe95SmpytIDdUdiH81R-97" target="WRe95SmpytIDdUdiH81R-97">
          <mxGeometry width="50" height="50" relative="1" as="geometry">
            <mxPoint x="387" y="280" as="sourcePoint" />
            <mxPoint x="437" y="230" as="targetPoint" />
          </mxGeometry>
        </mxCell>
        <mxCell id="WRe95SmpytIDdUdiH81R-101" value="" style="ellipse;whiteSpace=wrap;html=1;aspect=fixed;" vertex="1" parent="1">
          <mxGeometry x="540" y="350" width="54" height="54" as="geometry" />
        </mxCell>
        <mxCell id="WRe95SmpytIDdUdiH81R-102" value="Check if store already added" style="text;html=1;align=center;verticalAlign=middle;whiteSpace=wrap;rounded=0;" vertex="1" parent="1">
          <mxGeometry x="537" y="362" width="60" height="30" as="geometry" />
        </mxCell>
        <mxCell id="WRe95SmpytIDdUdiH81R-103" value="" style="endArrow=none;html=1;rounded=0;" edge="1" parent="1">
          <mxGeometry width="50" height="50" relative="1" as="geometry">
            <mxPoint x="570" y="350" as="sourcePoint" />
            <mxPoint x="580" y="346" as="targetPoint" />
          </mxGeometry>
        </mxCell>
        <mxCell id="WRe95SmpytIDdUdiH81R-104" value="" style="endArrow=none;html=1;rounded=0;exitX=0.5;exitY=0;exitDx=0;exitDy=0;entryX=0.739;entryY=0.124;entryDx=0;entryDy=0;entryPerimeter=0;" edge="1" parent="1" source="WRe95SmpytIDdUdiH81R-101" target="WRe95SmpytIDdUdiH81R-101">
          <mxGeometry width="50" height="50" relative="1" as="geometry">
            <mxPoint x="390" y="196" as="sourcePoint" />
            <mxPoint x="440" y="146" as="targetPoint" />
          </mxGeometry>
        </mxCell>
        <mxCell id="WRe95SmpytIDdUdiH81R-105" value="" style="ellipse;whiteSpace=wrap;html=1;aspect=fixed;" vertex="1" parent="1">
          <mxGeometry x="537" y="276" width="54" height="54" as="geometry" />
        </mxCell>
        <mxCell id="WRe95SmpytIDdUdiH81R-106" value="Display results" style="text;html=1;align=center;verticalAlign=middle;whiteSpace=wrap;rounded=0;" vertex="1" parent="1">
          <mxGeometry x="534" y="288" width="60" height="30" as="geometry" />
        </mxCell>
        <mxCell id="WRe95SmpytIDdUdiH81R-107" value="" style="endArrow=none;html=1;rounded=0;" edge="1" parent="1">
          <mxGeometry width="50" height="50" relative="1" as="geometry">
            <mxPoint x="567" y="276" as="sourcePoint" />
            <mxPoint x="577" y="272" as="targetPoint" />
          </mxGeometry>
        </mxCell>
        <mxCell id="WRe95SmpytIDdUdiH81R-108" value="" style="endArrow=none;html=1;rounded=0;exitX=0.5;exitY=0;exitDx=0;exitDy=0;entryX=0.739;entryY=0.124;entryDx=0;entryDy=0;entryPerimeter=0;" edge="1" parent="1" source="WRe95SmpytIDdUdiH81R-105" target="WRe95SmpytIDdUdiH81R-105">
          <mxGeometry width="50" height="50" relative="1" as="geometry">
            <mxPoint x="387" y="122" as="sourcePoint" />
            <mxPoint x="437" y="72" as="targetPoint" />
          </mxGeometry>
        </mxCell>
        <mxCell id="WRe95SmpytIDdUdiH81R-110" value="" style="ellipse;whiteSpace=wrap;html=1;aspect=fixed;" vertex="1" parent="1">
          <mxGeometry x="387" y="404.5" width="54" height="54" as="geometry" />
        </mxCell>
        <mxCell id="WRe95SmpytIDdUdiH81R-111" value="Add store" style="text;html=1;align=center;verticalAlign=middle;whiteSpace=wrap;rounded=0;" vertex="1" parent="1">
          <mxGeometry x="384" y="416.5" width="60" height="30" as="geometry" />
        </mxCell>
        <mxCell id="WRe95SmpytIDdUdiH81R-112" value="" style="endArrow=none;html=1;rounded=0;" edge="1" parent="1">
          <mxGeometry width="50" height="50" relative="1" as="geometry">
            <mxPoint x="417" y="404.5" as="sourcePoint" />
            <mxPoint x="427" y="400.5" as="targetPoint" />
          </mxGeometry>
        </mxCell>
        <mxCell id="WRe95SmpytIDdUdiH81R-113" value="" style="endArrow=none;html=1;rounded=0;exitX=0.5;exitY=0;exitDx=0;exitDy=0;entryX=0.739;entryY=0.124;entryDx=0;entryDy=0;entryPerimeter=0;" edge="1" parent="1" source="WRe95SmpytIDdUdiH81R-110" target="WRe95SmpytIDdUdiH81R-110">
          <mxGeometry width="50" height="50" relative="1" as="geometry">
            <mxPoint x="237" y="250.5" as="sourcePoint" />
            <mxPoint x="287" y="200.5" as="targetPoint" />
          </mxGeometry>
        </mxCell>
        <mxCell id="WRe95SmpytIDdUdiH81R-114" value="" style="ellipse;whiteSpace=wrap;html=1;aspect=fixed;" vertex="1" parent="1">
          <mxGeometry x="540" y="204" width="54" height="54" as="geometry" />
        </mxCell>
        <mxCell id="WRe95SmpytIDdUdiH81R-115" value="Search for booking&#39;s details" style="text;html=1;align=center;verticalAlign=middle;whiteSpace=wrap;rounded=0;" vertex="1" parent="1">
          <mxGeometry x="537" y="216" width="60" height="30" as="geometry" />
        </mxCell>
        <mxCell id="WRe95SmpytIDdUdiH81R-117" value="" style="endArrow=none;html=1;rounded=0;exitX=0.5;exitY=0;exitDx=0;exitDy=0;entryX=0.739;entryY=0.124;entryDx=0;entryDy=0;entryPerimeter=0;" edge="1" parent="1" source="WRe95SmpytIDdUdiH81R-114" target="WRe95SmpytIDdUdiH81R-114">
          <mxGeometry width="50" height="50" relative="1" as="geometry">
            <mxPoint x="390" y="50" as="sourcePoint" />
            <mxPoint x="440" as="targetPoint" />
          </mxGeometry>
        </mxCell>
        <mxCell id="WRe95SmpytIDdUdiH81R-118" value="" style="ellipse;whiteSpace=wrap;html=1;aspect=fixed;" vertex="1" parent="1">
          <mxGeometry x="534" y="138" width="54" height="54" as="geometry" />
        </mxCell>
        <mxCell id="WRe95SmpytIDdUdiH81R-119" value="Display results" style="text;html=1;align=center;verticalAlign=middle;whiteSpace=wrap;rounded=0;" vertex="1" parent="1">
          <mxGeometry x="531" y="150" width="60" height="30" as="geometry" />
        </mxCell>
        <mxCell id="WRe95SmpytIDdUdiH81R-120" value="" style="endArrow=none;html=1;rounded=0;" edge="1" parent="1">
          <mxGeometry width="50" height="50" relative="1" as="geometry">
            <mxPoint x="564" y="138" as="sourcePoint" />
            <mxPoint x="574" y="134" as="targetPoint" />
          </mxGeometry>
        </mxCell>
        <mxCell id="WRe95SmpytIDdUdiH81R-121" value="" style="endArrow=none;html=1;rounded=0;exitX=0.5;exitY=0;exitDx=0;exitDy=0;entryX=0.739;entryY=0.124;entryDx=0;entryDy=0;entryPerimeter=0;" edge="1" parent="1" source="WRe95SmpytIDdUdiH81R-118" target="WRe95SmpytIDdUdiH81R-118">
          <mxGeometry width="50" height="50" relative="1" as="geometry">
            <mxPoint x="384" y="-16" as="sourcePoint" />
            <mxPoint x="434" y="-66" as="targetPoint" />
          </mxGeometry>
        </mxCell>
        <mxCell id="WRe95SmpytIDdUdiH81R-122" value="" style="endArrow=none;html=1;rounded=0;exitX=0.5;exitY=1;exitDx=0;exitDy=0;entryX=0.5;entryY=0;entryDx=0;entryDy=0;" edge="1" parent="1" source="WRe95SmpytIDdUdiH81R-97" target="WRe95SmpytIDdUdiH81R-93">
          <mxGeometry width="50" height="50" relative="1" as="geometry">
            <mxPoint x="390" y="350" as="sourcePoint" />
            <mxPoint x="440" y="300" as="targetPoint" />
          </mxGeometry>
        </mxCell>
        <mxCell id="WRe95SmpytIDdUdiH81R-123" value="" style="endArrow=none;html=1;rounded=0;entryX=0;entryY=0.5;entryDx=0;entryDy=0;exitX=1;exitY=0.5;exitDx=0;exitDy=0;" edge="1" parent="1" source="WRe95SmpytIDdUdiH81R-17" target="WRe95SmpytIDdUdiH81R-94">
          <mxGeometry width="50" height="50" relative="1" as="geometry">
            <mxPoint x="390" y="350" as="sourcePoint" />
            <mxPoint x="440" y="300" as="targetPoint" />
          </mxGeometry>
        </mxCell>
        <mxCell id="WRe95SmpytIDdUdiH81R-124" value="" style="endArrow=none;html=1;rounded=0;" edge="1" parent="1">
          <mxGeometry width="50" height="50" relative="1" as="geometry">
            <mxPoint x="570" y="204" as="sourcePoint" />
            <mxPoint x="580" y="200" as="targetPoint" />
          </mxGeometry>
        </mxCell>
      </root>
    </mxGraphModel>
  </diagram>
</mxfile>
